inDegrees=yes
name=ik_data_2024_11_07_18_01
DataType=double
version=3
OpenSimVersion=4.5.1
endheader
time	pelvis_tilt	pelvis_list	pelvis_rotation	pelvis_tx	pelvis_ty	pelvis_tz	hip_flexion_r	hip_adduction_r	hip_rotation_r	knee_angle_r	knee_angle_r_beta	ankle_angle_r	subtalar_angle_r	mtp_angle_r	hip_flexion_l	hip_adduction_l	hip_rotation_l	knee_angle_l	knee_angle_l_beta	ankle_angle_l	subtalar_angle_l	mtp_angle_l	lumbar_extension	lumbar_bending	lumbar_rotation	arm_flex_r	arm_add_r	arm_rot_r	elbow_flex_r	pro_sup_r	wrist_flex_r	wrist_dev_r	arm_flex_l	arm_add_l	arm_rot_l	elbow_flex_l	pro_sup_l	wrist_flex_l	wrist_dev_l
0	-0.01955772650806569	-0.007876819855511002	14.50898397367556	0	0.9399999999999999	0	0.2965435742496764	-0.01277965033185681	-0.0849019277846392	0.5320902607900171	0.009286726968581082	-3.79408183504793	0	0	0.2967781218481406	-0.008739159989404643	-0.08458854872369304	0.5282625313837216	0.009219920487565819	-3.79408183504793	0	0	0	0	0	0	-2.139017558605893	0	54.04564324583846	49.15710468084873	0	0	0	-2.139017558605893	0	54.04564324583846	49.15710468084873	0	0
0.04352	-0.1460161952814437	0.07497230546491089	15.07555115543957	0	0.9399999999999999	0	0.4738122894856414	-0.1453202642034772	-0.6372020716309564	0.4922233627223355	0.008590918334743073	-3.795663375065281	0	0	0.3902035814760119	0.10468871786399	0.4861483077259566	0.5223814118931897	0.009117275588752825	-3.795663375065281	0	0	0	0	0	0	-2.141001335114528	0	54.05230807682957	49.15374843078285	0	0	0	-2.141001335114528	0	54.05230807682957	49.15374843078285	0	0
0.08878	-0.15579468816948	0.0846624969084231	15.04359546480962	0	0.9399999999999999	0	0.4455545412475259	-0.1031611205662902	-0.614099562347389	0.5714038371590234	0.009972878316954481	-3.796105188430871	0	0	0.3999303680355115	0.1060134487052171	0.4549580016178193	0.5432691105878489	0.00948183470413915	-3.796105188430871	0	0	0	0	0	0	-2.141578603272352	0	54.05422584194844	49.1527993286481	0	0	0	-2.141578603272352	0	54.05422584194844	49.1527993286481	0	0
0.13064	-0.2127319421178198	0.09396852241012398	15.1490458796285	0	0.9399999999999999	0	0.3999321126626828	-0.06577950435811107	-0.7155092362422141	0.5466500227027902	0.00954084275226544	-3.796969076643844	0	0	0.4670320102924823	0.1420533944574449	0.5531211662285782	0.529927905859924	0.009248986755454226	-3.796969076643844	0	0	0	0	0	0	-2.142656244084357	0	54.05785335846578	49.15096839719768	0	0	0	-2.142656244084357	0	54.05785335846578	49.15096839719768	0	0
0.17964	-0.4151919472015485	0.2679728487517352	16.46763849610442	0	0.9399999999999999	0	0.4361694545177312	-0.2421267805461702	-2.016349185412437	0.4837477543355251	0.008442991062283587	-3.798795365042168	0	0	0.5989460424435015	0.3777361689682184	1.870999795675867	0.531409682146012	0.009274848630424435	-3.798795365042168	0	0	0	0	0	0	-2.14495831183657	0	54.06557426721091	49.14708778348836	0	0	0	-2.14495831183657	0	54.06557426721091	49.14708778348836	0	0
0.22395	-0.5937740480492592	0.2998223277662937	16.72006390760835	0	0.9399999999999999	0	0.7208316005419466	-0.2531896404826074	-2.255810066022753	0.507673338097184	0.008860571274386225	-3.800254351747562	0	0	0.7398654617134657	0.455049446541648	2.127588617574632	0.5011873022267729	0.008747368593045094	-3.800254351747562	0	0	0	0	0	0	-2.146763616883959	0	54.07167972925926	49.14399648226013	0	0	0	-2.146763616883959	0	54.07167972925926	49.14399648226013	0	0
0.26503	-0.7627116276347402	0.235078958009385	16.24558627087811	0	0.9399999999999999	0	1.029807424623138	-0.2145291096515971	-1.773983409412718	0.5114459314232522	0.008926415449264879	-3.801997206991283	0	0	0.9260081464740288	0.4342216627304215	1.654408301834418	0.5052331287477835	0.008817981586801237	-3.801997206991283	0	0	0	0	0	0	-2.148938656671235	0	54.07901250602591	49.140296378598	0	0	0	-2.148938656671235	0	54.07901250602591	49.140296378598	0	0
0.31464	-0.6554466857960326	0.3050958081799958	16.75710594252487	0	0.9399999999999999	0	1.046456225181768	-0.2429039684862014	-2.285233140334944	0.5505023660543191	0.009608078827666934	-3.803703861225403	0	0	0.8076061680726884	0.4787385325806081	2.162753062973739	0.5226371880047093	0.00912173972404679	-3.803703861225403	0	0	0	0	0	0	-2.15106401102807	0	54.08618108487888	49.1366756480192	0	0	0	-2.15106401102807	0	54.08618108487888	49.1366756480192	0	0
0.35945	-0.733472209237606	0.321123786940791	16.84581299456841	0	0.9399999999999999	0	1.117102885410475	-0.1682017625555459	-2.355140278530722	0.5590542914650001	0.009757338083468285	-3.804848800765162	0	0	0.8746808261814116	0.5204330948246199	2.241188252585005	0.5108376005270847	0.008915798072185149	-3.804848800765162	0	0	0	0	0	0	-2.15247372240932	0	54.09095663380953	49.13425241522326	0	0	0	-2.15247372240932	0	54.09095663380953	49.13425241522326	0	0
0.39765	-0.5908350991802895	0.237738839067383	16.19202833369281	0	0.9399999999999999	0	1.060722821263419	0.05622562124980685	-1.717037529351216	0.5913496301113513	0.01032099807589368	-3.806453093827222	0	0	0.7710131683629697	0.3914561303171956	1.59526715132049	0.5231464149648012	0.009130627411140315	-3.806453093827222	0	0	0	0	0	0	-2.154505372993682	0	54.09776797047484	49.130835217232	0	-5.38806921148701e-36	0	-2.154505372993682	0	54.09776797047484	49.130835217232	0	-5.38806921148701e-36
0.44856	-0.7965904932303184	0.5350309718344249	18.39505533058132	0	0.9399999999999999	0	0.9858902700793846	-0.2331032167462673	-3.91125020662823	0.5567381652461697	0.009716914055057927	-3.808251919671231	0	0	0.8699397865225976	0.7736906648640801	3.789997972121709	0.53288943182551	0.009300675134437006	-3.808251919671231	0	0	0	0	0	0	-2.156791221203105	0	54.10542121554834	49.12700076326478	0	0	0	-2.156791221203105	0	54.10542121554834	49.12700076326478	0	0
0.494	-0.9582354281164888	0.7359007907843282	19.98341051325083	0	0.9399999999999999	0	0.5952127617495078	-0.435880530804243	-5.480837328362154	0.5012743320615434	0.008748887550209306	-3.809885903009721	0	0	0.9466144933041923	1.036988201944536	5.371144033085962	0.5501587214218171	0.009602081097372967	-3.809885903009721	0	0	0	0	0	0	-2.158859280284803	0	54.11235629602912	49.12352033257682	0	0	0	-2.158859280284803	0	54.11235629602912	49.12352033257682	0	0
0.53225	-1.220441438717755	1.02781522945389	22.05267304923321	0	0.9399999999999999	0	0.5004628233150976	-0.6538371605256192	-7.551884986113478	0.5143216111173052	0.008976605528158847	-3.811473575648773	0	0	1.037435464571524	1.435882748155548	7.432094404187395	0.5443962158102479	0.009501506401286434	-3.811473575648773	0	0	0	0	0	0	-2.160889932657254	0	54.11914236547788	49.12012919342285	0	0	0	-2.160889932657254	0	54.11914236547788	49.12012919342285	0	0
0.58505	-1.076553066551443	0.9366213060125059	21.39393482219387	0	0.9399999999999999	0	0.3683630622886523	-0.4920152521098195	-6.898999588982896	0.506357145155175	0.008837599373956657	-3.813379831612293	0	0	0.921686977200711	1.28132487125617	6.781797347601849	0.5157400520647319	0.009001361992936552	-3.813379831612293	0	0	0	0	0	0	-2.163308359814252	0	54.12725391593813	49.1160624264993	0	0	0	-2.163308359814252	0	54.12725391593813	49.1160624264993	0	0
0.62884	-1.058298569497671	1.097265637632206	22.62499077298981	0	0.9399999999999999	0	0.2250758942492264	-0.6667209534678238	-8.120551020600729	0.4648188810871505	0.008112619900406775	-3.81517695662498	0	0	0.8286341247407695	1.449238679980461	8.009344380250434	0.5351666930648773	0.009340420840992012	-3.81517695662498	0	0	0	0	0	0	-2.165600743612571	0	54.13492780470016	49.11222337621589	0	0	0	-2.165600743612571	0	54.13492780470016	49.11222337621589	0	0
0.6720699999999999	-0.8549799281554512	1.013009423228097	22.01026035706345	0	0.9399999999999999	0	0.02093195166787642	-0.6619824538286707	-7.529641164604361	0.4869729933074224	0.008499282101506833	-3.816969843664833	0	0	0.6809991769277075	1.282752024711866	7.403656182676759	0.5156072663735105	0.008999044445425201	-3.816969843664833	0	0	0	0	0	0	-2.167857100756243	0	54.14252299979185	49.1084029439999	0	0	0	-2.167857100756243	0	54.14252299979185	49.1084029439999	0	0
0.7136400000000001	-0.8447740599428392	0.654130656264706	19.31345612350392	0	0.9399999999999999	0	0.3972149486337432	-0.4242322390380541	-4.819225865120512	0.4464671944796809	0.007792322545812283	-3.825206653872645	0	0	0.8444157810087285	0.9070005682976716	4.710967528567299	0.5124286285599148	0.008943566749849561	-3.825206653872645	0	0	0	0	0	0	-2.178199530535826	0	54.1774385077292	49.09082276103806	0	0	0	-2.178199530535826	0	54.1774385077292	49.09082276103806	0	0
0.76454	-0.8237128148025974	0.4548182754607068	17.93611816932179	0	0.9399999999999999	0	0.6583913252688307	-0.3343352056948122	-3.450975526414636	0.4964734697692174	0.008665096696273376	-3.826701786133111	0	0	0.8928765648915218	0.6935239610902681	3.337764064192036	0.498266959818358	0.008696399002732634	-3.826701786133111	0	0	0	0	0	0	-2.180123329310142	0	54.18386953165226	49.08761646350767	0	0	0	-2.180123329310142	0	54.18386953165226	49.08761646350767	0	0
0.80546	-0.7482397898978611	0.198531144975897	16.04515087851985	0	0.9399999999999999	0	0.8224735087486051	-0.1630114444003001	-1.579466880807104	0.5782687086739189	0.01009269292761578	-3.828574756921006	0	0	0.9187397695690184	0.3976770162001035	1.448451712152858	0.499523447869707	0.008718328856240642	-3.828574756921006	0	0	0	0	0	0	-2.182529792634576	0	54.19191802842147	49.08360113872833	0	0	0	-2.182529792634576	0	54.19191802842147	49.08360113872833	0	0
0.84611	-0.6813046035086291	0.09396181633445881	15.22380558213209	0	0.9399999999999999	0	0.8792188541839069	-0.04943628846969855	-0.7443570548063341	0.5175670293799829	0.009033248762446927	-3.830184507329289	0	0	0.8995115669044246	0.2629711999860222	0.6300614041917396	0.5193243301010765	0.00906391944597768	-3.830184507329289	0	0	0	0	0	0	-2.184604532344793	0	54.1988521654813	49.08014617185359	0	0	0	-2.184604532344793	0	54.1988521654813	49.08014617185359	0	0
0.89468	-0.773592678638647	0.1001360508111243	15.29843504882756	0	0.9399999999999999	0	1.075520572512076	-0.06010296927182565	-0.7975102575181801	0.4499337577913277	0.007852825489329357	-3.831164699589979	0	0	0.9737227910511017	0.2962331403196672	0.7101843535390536	0.498623857696203	0.00870262804579441	-3.831164699589979	0	0	0	0	0	0	-2.185824403969877	0	54.20298795433462	49.07805633920739	0	0	0	-2.185824403969877	0	54.20298795433462	49.07805633920739	0	0
0.94398	-0.911292105988416	0.02540663097221953	14.74202407737194	0	0.9399999999999999	0	1.264237740535315	-0.07697744302857375	-0.2695930924573599	0.5090189978813963	0.008884057468232405	-3.832681643322764	0	0	1.140046781439664	0.2466644527561573	0.1483369635030197	0.5140523828968296	0.008971906609272263	-3.832681643322764	0	0	0	0	0	0	-2.187776877867935	0	54.20952870768559	49.07479616964352	0	0	0	-2.187776877867935	0	54.20952870768559	49.07479616964352	0	0
0.97762	-0.9367367106998571	0.02979067961815906	14.776274002491	0	0.9399999999999999	0	1.078577912397742	0.05159270165005508	-0.2769923421937086	0.4564422211833852	0.007966419604766279	-3.834279811149116	0	0	1.15595424391038	0.2623238120960699	0.1814534603525427	0.5139742525315347	0.008970542977152081	-3.834279811149116	0	0	0	0	0	0	-2.189769013807097	0	54.21627374056435	49.07138940692303	0	0	0	-2.189769013807097	0	54.21627374056435	49.07138940692303	0	0
